<svg xmlns="http://www.w3.org/2000/svg" viewBox="0 0 500 500">
<path stroke="#606261" fill="#606261" d="M448.29,344.33c-9.41,1.42-9.12,1.44-9.65,10.06-1.4,23.09-3.05,46.17-4.63,69.25-.7,10.29-1,20.63-2.32,30.84-1.69,12.95-13,22.22-26.09,22.22h-312A26.32,26.32,0,0,1,67.25,453c-2.14-24.19-4-48.41-6.07-72.61-.84-9.95-2-19.87-2.6-29.83-.24-4.26-1.55-6.14-5.89-5.6a12.44,12.44,0,0,1-3.22-.52c1.3-10.07,2.24-20,3.94-29.76,1.5-8.57,9.85-15.08,18.6-15.42,1,0,2,0,3,0q173.75,0,347.49-.06c9.72,0,17.79,3.54,20.47,12.71C446,322.22,446.59,333.29,448.29,344.33Zm-381,1.6c0,1.48-.08,2.6,0,3.71.76,9.12,1.57,18.23,2.33,27.35,2,23.87,3.85,47.75,6,71.61,1.22,13.81,8,19.73,21.78,19.73h233c24.66,0,49.32,0,74,0,10.31,0,17.88-6.57,19-16.75.95-8.76,1.37-17.58,2-26.37q1.83-26.65,3.6-53.3c.57-8.57,1-17.14,1.5-26ZM61.44,323H435.77c1.32-9.79-3.88-15.32-14.19-15.32q-172.63,0-345.28,0C65.75,307.72,61.59,311.89,61.44,323Zm375.46,4.5H67.14c-7.54,0-8.19.8-6.82,8.4h377.9Z"/>
<path stroke="#606261" fill="#606261" d="M89.18,199.5c.85-7,1.63-13.72,2.5-20.41.47-3.62.71-7.32,1.73-10.79A19.63,19.63,0,0,1,112,154.23c11.49-.18,23-.1,34.48-.1q117.95,0,235.89,0c13.73,0,20.68,6.12,22.81,19.87.45,3,.82,5.92,1.18,8.89.66,5.42,1.28,10.84,1.89,16.13-.56.35-.83.65-1.11.67-10.08.79-7.67-1-9.16,9.06-3.11,21-5.53,42.17-8.31,63.25-1.6,12.14-12.61,22.15-24.87,22.79-1.66.08-3.33.12-5,.12-75.3,0-150.6-.16-225.89.13-16.46.07-26.76-9.78-29.28-21.31-1.52-6.94-1.67-14.19-2.29-21.31q-2.11-24.36-4.06-48.72c-.22-2.79-1.52-3.79-4.12-3.78C92.71,199.93,91.26,199.69,89.18,199.5Zm17.76,1.41c0,1.8-.1,3.12,0,4.41,1.89,21,3.84,42.07,5.7,63.1.92,10.45,8.6,17.87,19.11,17.87q115.22.07,230.43,0c10.3,0,17.86-7.2,19.13-17.38,1.76-14.18,3.79-28.32,5.64-42.49,1.09-8.35,2.08-16.72,3.16-25.51ZM101.3,178H396.18c.51-10.08-3.83-15.27-12.8-15.27q-134.65,0-269.3,0C105.18,162.72,100.16,168.72,101.3,178Zm296.47,12.94c1-7.85.32-8.69-6.77-8.69q-142,0-284,0c-7.74,0-7.74,0-7.3,8.69Z"/>
<path stroke="#606261" fill="#606261" d="M364.92,75.18c-9.64,1.77-9.74,1.75-11.48,11-2.62,13.87-5,27.79-7.64,41.65a26.58,26.58,0,0,1-26,21.95q-72.74.15-145.47,0c-14.44,0-25.42-11.14-27-26.26-1.51-14.54-3.42-29-5-43.58-.33-3-1.69-4.09-4.52-4-1.45,0-2.91-.19-5.06-.35,1.38-10.5,2.14-20.78,4.22-30.79,1.83-8.85,10.12-14.45,19.22-14.45q92.73,0,185.46,0c8.79,0,17.1,5.58,18.91,14.14C362.62,54.49,363.48,64.77,364.92,75.18ZM151,76.93a16.18,16.18,0,0,0-.18,2.46c1.76,14.69,3.28,29.42,5.41,44.05,1.66,11.4,8.83,17.81,19.25,17.83q71.51.09,143,0c9.83,0,17.07-6.27,18.9-15.87.5-2.61,1-5.22,1.47-7.84,2.38-13.38,4.76-26.77,7.22-40.63ZM352.61,54c1.3-9.31-3.91-15.29-13.23-15.3q-90.67,0-181.36,0c-9.29,0-14.12,5.76-12.91,15.29ZM143.23,67h211c.32-8.71.32-8.73-7.76-8.73q-98,0-195.94,0C143,58.24,142.43,58.93,143.23,67Z"/>
</svg>