<svg xmlns="http://www.w3.org/2000/svg" viewBox="0 0 500 500">
<path stroke="#606261" fill="#606261" d="M171.3,387.12l-9.93-10.77,16.11-3.53c-.75-6.29-1.51-12.59-2.48-20.66l39.29,14.31c0-7.71-.45-15.16.15-22.52.44-5.32,2.34-10.5,3.44-15.77a9.66,9.66,0,0,0-.17-4c-1.06-4.61-3-9.14-3.27-13.77a221.68,221.68,0,0,1,.05-28.47c.4-5.41,4-10.67,4-16s-3.56-10.57-4-16a250.9,250.9,0,0,1-.1-28c.14-4.06,1.39-8.08,2.07-12.13a12,12,0,0,0,.19-3.72c-.7-4.53-2.12-9-2.25-13.55-.33-11.32.1-22.66-.19-34-.19-7.53,2.88-13.14,8.57-17.63,8-6.33,17.35-9.83,27.18-11.91,4.29-.9,5.57-2.81,5.42-7.06-.31-9,.12-18-.17-27-.18-5.68,2.39-9.08,7.31-11.21,8.93-3.86,18.43-4.64,27.89-4.14a90.66,90.66,0,0,1,20.49,3.7c7,2,8.75,5.39,8.76,12.66,0,9,.14,18-.07,27-.09,3.39.92,4.74,4.33,5.8a151.68,151.68,0,0,1,22.74,8.65c9.68,4.82,14.78,12.7,14.13,24.22-.61,10.79.67,21.73-.38,32.45a125.15,125.15,0,0,0,0,27.43c1.18,9.86.78,20,.05,29.94-.36,5.07-4.15,10-4.17,14.94,0,4.81,3.83,9.55,4.17,14.45a262.48,262.48,0,0,1,.06,30.47c-.19,4.15-2.09,8.22-3.16,12.34-.35,1.31-1.21,3.1-.68,3.92,3.9,5.93,4.21,12.49,4,19.22a38.09,38.09,0,0,0,.52,4.33c7.7-2.85,15.75-4.28,22-8.45,13.75-9.27,29.16-11.49,44.86-13.43,2-.24,3.94-.45,7.4-.85-.39,4.28-.92,8.19-1,12.1-.06,1.91.07,4.31,1.15,5.67,2.53,3.15,4,6.11,1.6,9.89-1.61,2.55-.94,4.66,1.14,6.59,3,2.75,3.4,6,1.49,9.49-1.41,2.6-1,4.7,1.14,6.64,3,2.68,3.66,5.86,1.59,9.39-1.5,2.55-1.11,4.65,1,6.67,2.86,2.72,3.63,5.92,1.52,9.45-1.52,2.54-1.18,4.68,1.05,6.61,3.31,2.86,3.12,6.17,1.61,10a7.23,7.23,0,0,0,.2,4.95c1.63,4,3.67,7.81,6.07,12.78-7.78,1.16-14.13,2-20.43,3.08-11.54,2-22.71.81-34-2.3-14-3.85-28.11-1.18-42.12.63-21.41,2.78-42.84,5.51-64.2,8.71-29.55,4.43-59.08,9.07-88.53,14.12a42.92,42.92,0,0,0-16,6.61c-10.49,7-22,9.82-34.23,11.2-4.77.54-9.53,1.23-15.29,2V466.77l-15.56,3.09c-1.43-7.26-2.87-14.32-4.13-21.42-.13-.72.67-1.7,1.22-2.42.39-.5,1.35-.65,1.58-1.16,3.43-7.51,10.75-8.28,19-10.2l-10.37-8.26c4.77-4.35,5.76-8.71,2.91-13.92,7.87-4.6,12.49-11,11-21Zm-25.25,85.63,1.32,1.28c2.13-.26,4.26-.55,6.4-.77,11-1.15,21.37-4,31-10.06a53.42,53.42,0,0,1,18.78-7.71c29.61-5.15,59.33-9.72,89.06-14.15,21.37-3.18,42.82-5.79,64.23-8.67,17.36-2.33,34.58-4.15,51.89,1.28,11.16,3.51,22.49.82,34.61-1.5-2.13-2.49-3.45-5.49-5.12-5.71-5.07-.65-10.28-.23-16.5-.23,1.44-.95,2.38-2,3.49-2.2,3.73-.81,7.73-.82,11.2-2.19,1.87-.74,4.42-4.25,4-5.46-1.17-3-3.07-6.51-7.51-6-3.46.42-6.91,1.05-10.38,1.3-.86.07-1.81-.94-2.71-1.46,4.72-1.78,9-2.38,13.2-3.29,1.29-.28,3-1.13,3.47-2.18.75-1.76,1.44-4.29.7-5.77-1.26-2.53-3.09-5.27-6.92-4.55s-7.46,1.19-11.2,1.77l-.78-.93c.76-.78,1.4-2,2.3-2.25,2.73-.68,5.57-.9,8.35-1.42,4-.75,7-4.15,6.55-7.3s-5.4-6.26-9.17-5.63a75.66,75.66,0,0,1-7.87,1.23c-1,.06-2.09-.93-3.14-1.44a12.5,12.5,0,0,1,5.46-2c1.8-.28,3.63-.42,5.43-.75,4-.72,7.39-4.74,6.69-7.75-.79-3.36-5.14-5.92-9-5.26a78.31,78.31,0,0,1-7.86,1.25c-1.08.07-2.23-.87-3.35-1.35l.67-1.37c3.44-.5,6.89-.92,10.32-1.51,3.91-.66,7.22-4.82,6.47-7.93-.83-3.39-5-5.64-9-4.9-2.77.51-5.55,1.06-8.35,1.35-.71.07-1.52-.78-2.28-1.2.58-.66,1.07-1.76,1.76-1.9,2.93-.59,5.91-.92,8.88-1.29,3.89-.48,5.63-2.64,5.59-6.79-13.19,1.07-25.57,2.94-36.83,10.22a57.78,57.78,0,0,1-19.21,8c-17.38,3.6-34.94,6.38-52.49,9.06-22.5,3.44-45.14,6-67.58,9.82-19.06,3.23-37.32,3.7-54.42-7.23-3.18-2-7.37-2.48-11.66-3.84.12,2.51.13,4.13.3,5.74.92,8.85.93,8.84-6.93,11.73-.24.09-.37.47-.79,1.05l10.28,11.26c-12.41,7.31-9.09,17.54-5.87,27.77a9.67,9.67,0,0,1,.55,2.94c-.08,3.06.32,6.32-.58,9.15a200,200,0,0,1-8,21,14.91,14.91,0,0,1-6.08,6.45c-5.4,2.9-11.32,4.83-16.81,7.58C148.72,468.93,147.53,471.14,146.05,472.75ZM262.74,128.49c1.21,5.51-2.42,5.42-5.92,6.58a269.83,269.83,0,0,0-27.7,10.69,12.19,12.19,0,0,0-7.44,11.55c.08,13.15-.23,26.32.22,39.46.1,2.87,2,6.79,4.34,8.23a50.49,50.49,0,0,0,15,6.16c23.71,5.57,47.79,6.25,71.91,3.77a207.57,207.57,0,0,0,28.33-5.33c8.1-2,11.68-7.48,11.69-15.74,0-10.82-.46-21.67.15-32.46.48-8.42-3.11-14.11-10.09-17.27a176.64,176.64,0,0,0-25.21-9c-3.76-1.06-6.51-1.85-6.44-6.56A93,93,0,0,1,262.74,128.49Zm25.89,203.39c9.46-.56,19-.56,28.36-1.83,9.17-1.23,18.22-3.55,27.22-5.78,5.1-1.26,8.68-4.85,8.83-10.24.32-11.82.38-23.65,0-35.46-.22-6.74-6.08-11.27-11.71-9.67-23.24,6.61-47,6.73-70.8,5.49-11.36-.6-22.69-3-33.87-5.41-9.1-1.92-14.89,2-14.95,11.56-.06,10.32.15,20.65-.08,31-.12,5.57,2.06,9.26,7.18,11.26,2.32.9,4.63,1.85,7,2.56C253.06,330.43,270.77,331.59,288.63,331.88ZM221.7,236c0,5.33.06,10.66,0,16-.06,5,2,8.87,6.74,10.59,5.91,2.14,11.88,4.36,18,5.55,24,4.65,48.3,4.9,72.51,1.87,8.81-1.1,17.51-3.63,26-6.23,5.87-1.8,8.32-6.65,8.24-12.86-.12-10.15.1-20.32-.12-30.47a19,19,0,0,0-2-7.55c-.46-1-2.86-1.88-3.93-1.51-17.53,6.09-35.72,7.55-54.05,7.75-20.67.23-41.26-.57-61.12-7.22-7.24-2.43-10.15-.4-10.3,7.61C221.62,225,221.7,230.49,221.7,236Zm0,116.27c0,4,.22,8-.07,12s1.6,5,5,4.89c1.82-.09,3.66-.13,5.47-.37q15.78-2.13,31.56-4.36,42.9-6,85.77-12.19a5,5,0,0,0,3.48-2.19c2.45-5.48-.28-16.84-4.87-20.31a7.13,7.13,0,0,0-4.83-1.38c-11.79,1.79-23.48,4.62-35.32,5.63-23.94,2.05-47.83,1.28-71.24-5-8.78-2.37-14.65,2-14.93,11.34C221.61,344.25,221.71,348.25,221.7,352.25ZM264.23,92c10,6.76,38.34,6.53,46-.12C301.83,85.25,273.59,85.17,264.23,92Zm47.24,9.29a86,86,0,0,1-48.18,0c-1.55,4.73,0,7,4.3,7.94a88,88,0,0,0,39.91-.08C311.46,108.32,313.21,106.16,311.47,101.31Zm1.23,20.53-1.27-1.61c-16.06,4.08-32.13,3.92-48.74.74.8,2.08,1.88,4.26,3.44,4.7a78.69,78.69,0,0,0,42.35.09C310.12,125.32,311.3,123.19,312.7,121.84Zm-51.12-9.44c1.9,2.09,2.93,4.26,4.46,4.7,4.43,1.29,9.09,2.72,13.62,2.6,9.57-.27,19.13-1.37,28.66-2.38,2.74-.29,4.53-1.94,3.46-4.88-8.17.79-16,2.13-23.9,2.14C279.81,114.59,271.74,113.3,261.58,112.4Z"/>
<path stroke="#606261" fill="#606261" d="M266.39,67.58c-11.33-2.65-22.48-5-33.47-7.93a44.94,44.94,0,0,1-13.57-5.79,13.93,13.93,0,0,1-4.47-18.17c3.12-6.15,9.44-8.53,17-6.41a11.26,11.26,0,0,1,1.88.64C250.3,38,259.37,52.2,266.39,67.58ZM243.78,44.07c.35-3.37-8.06-10.2-10.45-9.14-.73.33-1.47,2.66-1.18,2.93a87.75,87.75,0,0,0,8.85,7C241.56,45.24,243,44.3,243.78,44.07Z"/>
<path stroke="#606261" fill="#606261" d="M208.71,58.75c-10.49,4.36-20.46,8.85-30.69,12.6a53.49,53.49,0,0,1-15.88,3.26c-7,.28-12.44-5.16-13.66-12.18-1-5.91,2.6-11.81,9.1-14.43,7.42-3,15-2.18,22.58-.67C190.45,49.39,200.26,52.74,208.71,58.75Zm-35.17-4,.32.85a12.42,12.42,0,0,0,2.86-2.2c.23-.3-.67-2.15-1.21-2.23a76.32,76.32,0,0,0-10.66-.93c-.72,0-1.46,1.74-2.18,2.68.85.61,1.67,1.67,2.57,1.74C168,54.92,170.77,54.77,173.54,54.77Z"/>
<path stroke="#606261" fill="#606261" d="M77.59,456.87l5.93,8.22c7.75-11.24,15.3-5.19,22.84-.3-.89,6.58-4.54,10.09-11.18,11.22-7,1.2-13.79,3.89-21.09,1.81a15.58,15.58,0,0,1-10.87-9.53Z"/>
<path stroke="#606261" fill="#606261" d="M57.3,445.06,50,448.52l6.77,6.32c-1.34,1.73-2.51,3.32-3.75,4.86-3.22,4-10.2,4.09-12.54-.34a47.22,47.22,0,0,1-4-12.62c-.89-4.45,2.29-6.81,5.68-9,3.6-2.35,5.88-.18,8.35,1.78C52.51,441.13,54.54,442.81,57.3,445.06Z"/>
<path stroke="#606261" fill="#606261" d="M101.87,433.94C95,437.71,88.7,441.3,82.26,444.65c-6.08,3.16-9.64,1.13-9.89-5.69-.12-3.4.43-6.83.76-11.4,6.76,3.73,12.1,1.48,17.48-1.24a4,4,0,0,1,3.45.64C96.77,429.1,99.24,431.55,101.87,433.94Z"/>
<path stroke="#606261" fill="#606261" d="M368.4,366.08c2.82,18.5,5.49,36,8.26,54.16L234.51,437c-1.79-11-3.5-21.49-5.19-31.94-.9-5.57-1.62-11.18-2.69-16.71-.56-2.89.31-3.78,3.15-4.15q58.08-7.46,116.13-15.11C353.27,368.17,360.62,367.14,368.4,366.08Zm-131.31,67.5,136-16.07c-2.37-15.62-4.52-30.23-6.94-44.79-.19-1.11-2.42-2.79-3.55-2.68-8.1.81-16.15,2-24.23,3.1q-32.61,4.31-65.22,8.59c-13.18,1.73-26.37,3.35-39.53,5.25-1.26.19-3.38,2.19-3.25,3.08C232.36,404.33,234.7,418.56,237.09,433.58Z"/>
</svg>