<svg xmlns="http://www.w3.org/2000/svg" viewBox="0 0 500 500">
<path stroke="#606261" fill="#606261" d="M187.11,289.85c9.65,11.54,18.35,22.28,27.46,32.66,3.63,4.13,3.68,7.17.86,12-20.15,34.71-39.93,69.63-59.66,104.57-1.3,2.29-1.63,5.31-1.78,8-.16,2.94.42,5.93.68,8.9l-1.19,1.08c-1-1-2.86-2-2.91-3.11-.31-6.55-.95-12.9,2.88-19.25,10.32-17.1,19.92-34.64,29.75-52,4.61-8.15,4.3-6.26-2.3-11.1-1.58-1.16-3.21-2.24-5.21-3.63-1.31,1.82-2.39,3.24-3.38,4.72-10.65,15.73-21.09,31.6-32,47.13-4.2,6-6.95,12-6.47,19.35.09,1.37-1.27,2.83-2,4.25a20.81,20.81,0,0,1-1.52-4.18c-1.07-7.63,1.37-14,5.86-20.35,12.33-17.39,24-35.23,36.34-53.45l-11.06-9.14-22.93,29c-4.35,5.49-8.54,11.11-13.08,16.43-6.48,7.57-12.57,15.19-10.46,26.4l-1.87.41c-.67-1.12-1.88-2.23-1.93-3.39-.32-7.11,1-13.44,5.93-19.37,13.13-15.74,25.58-32,38.29-48.12.92-1.17,1.76-2.39,3-4.05l-10-9c-2.51,2.68-4.78,5.08-7,7.5-12.39,13.29-24.61,26.75-37.25,39.79-4.59,4.75-7.77,9.75-8.57,16.35-.16,1.35-1.75,2.54-2.68,3.8a18.93,18.93,0,0,1-.83-4.5c.36-7.36,4-12.89,9.11-18.13,13.57-14,26.71-28.43,40-42.69,1.35-1.45,2.63-3,4.22-4.76l-10.83-9.55c-3.58,3.39-7.7,7.26-11.78,11.16-11.56,11.06-23,22.3-34.75,33.12-5.07,4.66-9,9.6-10.16,16.54-.25,1.44-1.82,2.66-3.59,3.45,1-7.56,1.94-14.52,8.14-20.13,15.57-14.09,30.48-28.9,45.71-43.37a37.08,37.08,0,0,1,4.59-3.29,23.35,23.35,0,0,0-1.34-2.51c-5.21-6.53-5.22-6.54-11.83-1.35-15.19,12-30.27,24.06-45.62,35.8-4.69,3.59-8.3,7.49-9.66,13.33a28.59,28.59,0,0,1-1.91,4.52l-1.5.27c-.33-1.28-1.22-2.73-.9-3.82,1.9-6.58,4.58-12.29,10.63-16.76,16.35-12.07,32.09-25,48.06-37.55,1.29-1,2.52-2.11,4.37-3.67l-9.4-11.29c-1.82,1.2-3.36,2.15-4.83,3.2C93,321.23,77.4,332.58,61.5,343.57c-5.64,3.9-10.41,8.07-12.3,15-.32,1.2-2,2-3.07,3-.11-1.54-.62-3.18-.26-4.59C47.62,350,52,345.33,57.93,341.29c16.25-11.06,32.12-22.68,48.14-34.08,1.47-1,2.88-2.19,4.83-3.68-2.47-3.36-4.63-6.68-7.24-9.59-.68-.76-3.12-.87-4.13-.25q-29.91,18.12-59.61,36.6c-1.43.89-2.4,2.68-3.29,4.21-1.57,2.71-2.91,5.54-4.34,8.32l-1.66.08c-.2-1.29-.92-2.79-.5-3.83,2.46-6,5.47-11.23,11.69-14.82,17.73-10.25,35-21.27,52.46-32,1.69-1,3.32-2.17,5.68-3.71a122.54,122.54,0,0,0-7.16-10.72c-.56-.7-3.36-.26-4.72.44C72,286.6,56,295.16,39.87,303.53c-8.82,4.58-18.5,8.09-21.3,19.65l-1.94-.51c-.19-1.29-1-2.86-.49-3.81,2.92-5.77,6.27-10.73,12.61-14,36-18.76,71.79-38,107.56-57.23,2.73-1.46,4.52-1.18,6.62.75,9.07,8.35,18.26,16.58,27.27,25,1.81,1.68,3.05,4,4.85,6.38,2.6-2.25,4.1-3.45,5.48-4.77Q300.44,160.47,420.32,46c2.62-2.51,5-5.3,9.28-5,6,.47,9.28,6.39,6,11.55a18.82,18.82,0,0,1-3,3.32q-120.41,115-240.85,230C190.33,287.28,188.73,288.48,187.11,289.85Zm-.19,75.58c7.14-12.13,13.94-23.53,20.48-35.08.52-.92-.36-3.15-1.24-4.26a513,513,0,0,0-64.09-67.21c-2.42-2.13-4.34-2.18-7-.55-6.4,3.91-13,7.53-19.45,11.27L102.75,277A357.74,357.74,0,0,0,186.92,365.43Z"/>
<path stroke="#606261" fill="#606261" d="M240.74,413.65l-22.89-2.5c3.81-4.61,6.82-7.9,9.35-11.52.7-1,.63-3.76-.17-4.45-8.05-6.88-7.9-15.65-5.91-24.76.94-4.31,2.56-8.47,4.18-13.71l18.49,11.7c6-3.81,12-7.55,17.92-11.42,4.18-2.74,6.34-1.28,7.29,3.18,1.23,5.83,2.72,11.61,3.58,17.49.39,2.64,1,3.54,3.78,3.93,5.86.83,11.63,2.28,17.35,3.45-1,11.32-11.12,24.19-21.23,26.67-4.1,1-6.16,2.83-7.28,6.79-.87,3.1-2.72,5.93-4.63,9.93l-17.51-13.74c-2.83,7.18-5.59,14.17-8.36,21.17l-1.14.12c-.13-1.19-.68-2.54-.31-3.55,1.82-5,3.87-9.89,5.86-14.82C239.64,416.28,240.2,415,240.74,413.65Zm27.66-29.38c1.34-8.29-.3-16.17-4.29-25.25l-20,15.19-16.15-11.78c-7.06,16.54-5.17,25.62,3.84,31.51,2.41,1.57,2.27,3.29.63,5.38-2.12,2.7-4.08,5.52-7.15,9.71,6,0,10.57.46,15-.16,3.09-.43,4.66.2,6.68,2.55,3.44,4,7.57,7.44,12.23,11.89l5.41-14.51c12.27-.55,22.11-9,24.07-21.28Z"/>
<path stroke="#606261" fill="#606261" d="M407.48,397.25c7.31-11.75,15.2-20.87,29.4-21.67a7.49,7.49,0,0,0,4.61-2.57c2.64-3.13,4.88-6.6,8-11,5.05,6,9.48,11.24,14.45,17.15l12.47-19,1.26.13c-.23,1.32-.07,2.88-.73,3.92-3.44,5.48-7.08,10.83-10.71,16.31l21.65,7.32c-4.55,3.59-8.17,6.18-11.42,9.19-.91.86-1.5,3.54-.89,4.35,6.33,8.36,4.77,16.93.93,25.49-1.82,4-4.31,7.79-7.39,13.27L454.89,424l-26,9.79a50.81,50.81,0,0,1-1.68-21.63c.6-4.57-.11-7.13-5.25-8.43C417.13,402.46,412.68,399.64,407.48,397.25Zm60.31,36c7.56-9.19,12.33-22.24,3.15-31.18-2.22-2.16-1.81-3.91.43-5.77,2.6-2.16,5-4.51,8.69-7.82-6-1.31-10.55-2.72-15.22-3.2-3-.3-4.16-1.54-5.53-3.93-2.57-4.5-5.76-8.65-9.38-14-3.31,5.23-5.75,9.1-8.18,12.93-12.38-1.72-23.29,4.28-28.15,16.08L433,403.5c-2.81,8-3.06,16.07-1,25.84l22.7-10.72Z"/>
<path stroke="#606261" fill="#606261" d="M329.87,387.26c-1.14-1.08-2.75-1.94-3.36-3.27-4.09-9-10.64-14.58-20-18.44-13.93-5.74-20.35-17.24-20.41-32.5,0-11.29,1.15-22.25,6-32.54,1.68-3.56,3.93-6.84,5.65-9.81,9.82,9.2,19.49,17.74,28.55,26.89,12.13,12.24,13.5,24.33,5.26,39.45a58.8,58.8,0,0,1-3.4,5.52c-6.41,9.26-6.42,9.25,0,18.91,1,1.49,1.95,3,2.92,4.53Zm-31.55-90c-5.44,8.27-7.66,17.37-8.27,26.64C288.58,346,293,354.7,310,363.26c9.74,4.91,10.17,4.72,16.06-4.46,10.44-16.29,9.26-27.46-4.73-40.81C314,311,306.28,304.41,298.32,297.24Z"/>
<path stroke="#606261" fill="#606261" d="M400.69,340l15.22,3.47-.2,1.35-15-2.79v16.71l-11.11-5.95c-6.06,10.06-15.28,9.87-25.06,8.1-3.13-.56-4.41-2.33-2.69-4.79,5.84-8.34,3-14.54-4.08-20.2-1.61-1.27-2.5-3.44-4.49-6.3,5.05-2.26,9.49-4.66,14.21-6.22,3.37-1.11,5.26-2.45,4.49-6.18a2.77,2.77,0,0,1,0-.5c.05-11.8,1.5-12.88,12.35-7.43a27,27,0,0,1,9.93,8.57c2,3,3.94,4.76,7.4,5.5,7,1.51,7.2,2,3.85,8.43C404.17,334.39,402.55,336.87,400.69,340Zm2.55-12.15a31.36,31.36,0,0,0-4.2-1.13c-3.87-.39-6.15-1.77-7.64-6-2.28-6.58-8.59-8.46-15.35-10.23v14.29l-16.66,5.73c-.05.66-.1,1.32-.14,2l12.6,11.45-6.58,13c7.07,1.32,14.09,2.91,18-2.75,4-5.87,7.45-6.2,12.64-2.78.18.12.6-.13,1.58-.38-.38-2.33-.39-4.86-1.24-7.07-1.25-3.25-.59-5.44,1.82-7.92C400.12,333.86,401.35,330.91,403.24,327.86Z"/>
<path stroke="#606261" fill="#606261" d="M318.76,431.17c3.45-1.51,7.05-2.76,10.28-4.65a6.62,6.62,0,0,0,2.51-4.51c.55-5.27.09-10.68,1-15.85,2.15-11.8,10.28-18.79,23.16-20.69,10.28-1.52,20.57-3,31.78-4.61-.37,3.7-.06,8.11-1.35,12a111.49,111.49,0,0,1-8.4,19.58C370,426.26,358,432.81,342.24,428.59c-7-1.88-12.54-.33-18.37,2.7a29.61,29.61,0,0,1-4.63,1.55Zm65.06-45.75c-11.46,1.75-21.8,3-32,5-7.25,1.47-12.86,6-14.57,13.46-1.23,5.41-1.26,11.12-1.57,16.71a3.7,3.7,0,0,0,1.83,3c8.42,2.46,17.42,4.34,25.08-.72C375.41,414.41,381.07,401.28,383.82,385.42Z"/>
<path stroke="#606261" fill="#606261" d="M456.05,355.07a35.34,35.34,0,0,1-5.15-1.52C440.34,348.64,432.14,341,428.38,330c-1.58-4.6-1-10.63.49-15.44,2.16-7.06,8.18-13,4.69-22,1.44.84,1.92,1,1.9,1.13-.95,6.82,2.3,9.59,8.75,11.62,13.84,4.36,18.28,13.69,15,28.64-.74,3.41-1.74,6.78-2.27,10.21C456.44,347.43,456.38,350.76,456.05,355.07Zm-4.18-5.22c1.46-6.73,2.76-12.53,4-18.35,2.56-12.4-3.71-21.6-16.26-23.81-1-.17-2.62-.06-3.06.55-4,5.66-7.58,11.93-5.3,18.93C434.53,337.36,441.8,344.48,451.87,349.85Z"/>
</svg>