<svg xmlns="http://www.w3.org/2000/svg" viewBox="0 0 500 500">
<path stroke="#606261" fill="#606261" d="M18.63,448.5V50.59c1.89-.1,3.51-.25,5.13-.25q107.26,0,214.51-.11c4.54,0,6,1.15,6,5.79q-.16,193.55,0,387.08c0,4.06-.73,5.81-5.44,5.8q-107.75-.22-215.5-.12C21.81,448.78,20.36,448.61,18.63,448.5ZM235.47,187.71h-202c-6.72,0-6.73,0-6.73,6.75v239c0,6.83,0,6.85,6.81,6.85H228c7.81,0,7.83,0,7.83-7.93q0-118.5,0-237C235.8,193.08,235.6,190.77,235.47,187.71ZM131.28,58.92c-32.81,0-65.63.08-98.45-.09-4.75,0-6.24,1.31-6.22,6.18.19,37.48.1,75,.11,112.46,0,6.43,0,6.46,6.72,6.46q98,0,195.91.11c5,0,6.59-1.32,6.56-6.43-.19-37.32-.09-74.64-.11-112,0-6.69,0-6.72-6.56-6.72Q180.27,58.9,131.28,58.92Z"/>
<path stroke="#606261" fill="#606261" d="M482.55,245.72V448.41H262.75V245.72Zm-110,172.48h95c6.74,0,6.76,0,6.76-6.48,0-46.51-.06-93,.1-139.52,0-4.75-1.29-6.3-6.16-6.29q-95.49.21-191,0c-5.12,0-6.47,1.61-6.46,6.59.17,46.34.1,92.68.11,139,0,6.65,0,6.68,6.65,6.68Zm0,3.68H282.63c-11.74,0-11.74,0-11.71,11.51,0,6.85,0,6.87,6.92,6.87H462.19c12.2,0,11.94,0,12.26-12.07.14-5.11-1.45-6.45-6.47-6.42C436.17,422,404.36,421.88,372.56,421.88Zm-.5-159.55q48.51,0,97,0c4.92,0,6.06-1.41,5.21-5.86-.76-3.9-3.84-2.55-6-2.55q-95.5-.1-191-.06c-.83,0-1.67.06-2.5,0-2.81-.18-3.67,1.24-3.87,3.91-.34,4.55,2.36,4.6,5.68,4.6Q324.3,262.28,372.06,262.33Z"/>
<path stroke="#606261" fill="#606261" d="M479.53,52.68V182.3H261.61V52.68ZM370.09,176.21c32.33,0,64.66-.09,97,.1,4.91,0,6.19-1.6,6.17-6.31q-.24-52.25,0-104.5c0-5.11-1.57-6.51-6.55-6.5q-96.24.21-192.47,0c-4.76,0-6.64,1-6.6,6.33q.39,52.25,0,104.5c0,5.06,1.36,6.52,6.44,6.48C306.1,176.1,338.1,176.21,370.09,176.21Z"/>
<path stroke="#606261" fill="#606261" d="M220.8,244.58c0,10.32-.08,20.64,0,31,0,3.33-1.09,5.89-4.44,6-3.63.15-5.1-2.44-5.09-6q0-31.46,0-62.92c0-3.54,1.39-6.14,5-6,3.33.11,4.55,2.6,4.52,6C220.72,223.27,220.8,233.93,220.8,244.58Z"/>
<path stroke="#606261" fill="#606261" d="M220.8,132.2c0,10.16-.07,20.31,0,30.47,0,3.5-.51,6.78-4.59,6.87s-5-3-5-6.6q.09-31,0-61.92c0-3.44,1-6.3,4.69-6.36,4.08-.07,4.91,3,4.87,6.58C220.72,111.56,220.8,121.88,220.8,132.2Z"/>
<path stroke="#606261" fill="#606261" d="M461.54,274.57V396.62c-1.85.13-3.6.35-5.36.35-26.16,0-52.33-.08-78.5.11-4.42,0-5.65-1.25-5.63-5.63q.24-55.77,0-111.53c0-4.24.95-5.73,5.52-5.69,26.33.22,52.67.11,79,.12C458.06,274.35,459.53,274.48,461.54,274.57ZM456.91,393.1a7,7,0,0,0,.49-1.5q.09-55,.17-110c0-3-1.48-3.64-4-3.64q-36.75,0-73.5,0c-3.25,0-4.31,1.25-4.3,4.45q.12,53.26,0,106.53c0,3.52,1.17,4.58,4.62,4.56,24.34-.11,48.67-.06,73-.07C454.48,393.39,455.61,393.21,456.91,393.1Z"/>
<path stroke="#606261" fill="#606261" d="M279.69,274.57h88.67V396.63H279.69Zm3.24,61c0,17.34.13,34.67-.1,52-.06,4.6,1.38,5.94,6,5.9q35.24-.31,70.49,0c4.56,0,6-1.26,6-5.89q-.26-52,0-104c0-4.36-1.32-5.78-5.72-5.75q-35.49.27-71,0c-4.37,0-5.78,1.35-5.73,5.73C283.05,300.92,282.93,318.26,282.93,335.59Z"/>
<path stroke="#606261" fill="#606261" d="M461.36,163.69c-2,.1-3.81.25-5.59.26-25.81,0-51.62-.1-77.42.1-4.6,0-6.36-.94-6.32-6q.36-41.22,0-82.43c0-4.62,1.42-6,5.95-6,26.14.17,52.28.09,78.42.07,3,0,5.43-.12,5.41,4.29-.18,29.14-.11,58.29-.13,87.43A19.29,19.29,0,0,1,461.36,163.69ZM376.13,74c-.16,1.32-.31,2-.31,2.63,0,26.5,0,53-.1,79.49,0,3.84,1.79,4.28,4.9,4.27,23.83-.08,47.65-.16,71.48.06,4.48,0,5.57-1.33,5.53-5.65-.19-25.33-.08-50.66-.1-76,0-1.59-.2-3.18-.31-4.81Z"/>
<path stroke="#606261" fill="#606261" d="M279.34,163.44V151.59c0-25.5.09-51-.09-76.51,0-4.21,1.33-5.41,5.41-5.39q39.49.21,79,0c3.7,0,5.26.92,5.23,5.06-.17,28.17-.11,56.34-.06,84.51,0,2.8-.14,4.74-3.86,4.72-27.49-.11-55-.06-82.49-.09A24.92,24.92,0,0,1,279.34,163.44ZM282.93,117c0,12.66.13,25.32-.08,38-.07,4.14,1.31,5.42,5.45,5.39q35.71-.26,71.45,0c4,0,5.55-1.07,5.52-5.31q-.24-38.22,0-76.46c0-4-1.29-5.07-5.19-5.05q-36,.25-71.95,0c-4.31,0-5.33,1.5-5.27,5.49C283.05,91.7,282.93,104.37,282.93,117Z"/>
</svg>