<svg xmlns="http://www.w3.org/2000/svg" viewBox="0 0 500 500">
<path stroke="#606261" fill="#606261" d="M265.07,57.31h6.18q101.21,0,202.42-.11c4.88,0,6,1.39,6,6.13q-.19,195.17,0,390.35c0,4.67-1,6.22-6,6.21q-101.46-.24-202.92,0c-4.7,0-5.81-1.44-5.81-5.9q.15-195.44.08-390.86Zm206.25,394V72.24c0-6.53,0-6.54-6.44-6.54q-92.74,0-185.47,0c-6.6,0-6.62,0-6.62,6.49q0,186.46-.12,372.93c0,5.14,1.44,6.35,6.44,6.34q93-.27,186-.12Z"/>
<path stroke="#606261" fill="#606261" d="M21.54,304.36V91.66h198c.1,1.79.28,3.56.28,5.32q0,101,.09,202c0,4.13-.72,5.79-5.39,5.77q-94-.24-188-.11C25,304.59,23.56,304.46,21.54,304.36ZM212,248c0-14.33-.06-28.66,0-43,0-3.61-.75-5.39-5-5.36q-40,.27-80,0c-3.59,0-5.09,1-5.07,4.76q.14,43.24,0,86.49c0,3.78,1.46,4.89,5,4.88q40-.12,80,0c4,0,5.13-1.53,5.09-5.31C211.9,276.33,212,262.17,212,248Zm-90-99.9c0,14,.11,28-.07,42,0,4.3,1,6.22,5.83,6.18q39.2-.33,78.41,0c4.78,0,5.9-1.75,5.88-6.13q-.19-42.19,0-84.4c0-4.65-1.6-5.94-6.1-5.91q-39,.25-77.91,0c-5,0-6.22,1.73-6.15,6.38C122.16,120.13,122,134.11,122,148.1Zm-3.56-.15c0-14.33-.13-28.66.09-43,.06-4-1.26-5.17-5.13-5.15q-39.75.18-79.49,0c-4,0-5.18,1.37-5.16,5.24q.18,43,0,86c0,4,1.42,5.16,5.25,5.15q39.75-.18,79.49,0c4,0,5.08-1.4,5-5.24C118.34,176.62,118.45,162.28,118.45,148Zm-.36,147.44c.17-1.35.33-2,.33-2.64,0-29.65,0-59.29.1-88.94,0-4-2.06-4.11-5-4.1-26.31,0-52.63.14-78.94-.08-4.8,0-5.85,1.64-5.83,6q.24,42,0,83.94c0,4.83,1.42,6.28,6.2,6.24,25.82-.19,51.63-.08,77.45-.1C114.17,295.75,116,295.52,118.09,295.39Z"/>
<path stroke="#606261" fill="#606261" d="M372.5,291.24c21.83,0,43.67.11,65.5-.09,4.22,0,5.73.86,5.71,5.46q-.27,60.24,0,120.49c0,4.58-1.52,5.54-5.75,5.53q-65.76-.21-131.5,0c-4,0-5.48-1-5.47-5.3q.21-60.49,0-121c0-4.36,1.57-5.19,5.51-5.16C328.5,291.33,350.5,291.24,372.5,291.24ZM304.6,418c1.62.15,2.58.31,3.55.31,42.49,0,85,0,127.46.1,4.2,0,4.49-2,4.49-5.24-.05-37.49-.1-75,.06-112.47,0-4.7-1.64-5.92-6.11-5.91q-61.73.21-123.46,0c-4.9,0-6.11,1.5-6.09,6.23.19,36.66.1,73.32.1,110Z"/>
<path stroke="#606261" fill="#606261" d="M362.32,228.7c-19.68,0-38.82.05-57.95-.14-1.1,0-2.39-1.85-3.19-3.1-.45-.72-.11-2-.11-3q0-60.43,0-120.87c0-6.62,0-6.64,6.47-6.64,16.82,0,33.63,0,50.45,0,3.21,0,4.75.64,4.74,4.39-.12,41.95-.07,83.9-.09,125.86C362.65,226.16,362.48,227.13,362.32,228.7ZM305,98.71c-.19,1.76-.41,2.88-.41,4,0,39.29,0,78.58-.09,117.86,0,3.73,1.58,4.47,4.78,4.45q22.47-.12,44.95,0c3.58,0,5-1.21,5-4.95q-.15-58.43,0-116.86c0-3.51-1.28-4.6-4.69-4.56-12.15.14-24.31,0-36.46,0Z"/>
<path stroke="#606261" fill="#606261" d="M443.1,228.71H407.35c-6.67,0-13.35-.3-20,.1-4.63.28-5.54-1.57-5.53-5.73.13-35,.07-70,.07-105,0-6.17.13-12.34,0-18.5-.1-3.47,1.25-4.65,4.68-4.63q26.5.17,53,0c2.94,0,4.12,1,4.11,4q-.12,63.51-.08,127A19.47,19.47,0,0,1,443.1,228.71Zm-3-66.67c0-19.32-.09-38.64.07-58,0-4-1.17-5.52-5.39-5.45q-22.23.33-44.46,0c-4.12-.07-5.09,1.52-5.08,5.2q.09,57.94,0,115.9c0,4.23,1.57,5.39,5.58,5.34,14.48-.18,29-.22,43.46,0,4.66.08,6-1.6,5.93-6.09C440,200,440.07,181,440.07,162Z"/>
<path stroke="#606261" fill="#606261" d="M458.75,260.27c-.07,10.11-8,18.5-17.26,18.31s-17.17-8.75-17.15-18.64,8-18.48,17.23-18.58C451.06,241.26,458.82,249.8,458.75,260.27Zm-17.14-14.64c-7.46,0-13.65,6.49-13.69,14.28s6.13,14.38,13.55,14.44c7.79.07,13.9-6.37,13.81-14.55C455.2,251.8,449.21,245.6,441.61,245.63Z"/>
</svg>